# xmcd CD database file
#
# Track frame offsets:
#	150
#	16952
#	32209
#	57703
#	79560
#	96302
#	113239
#	134781
#	156173
#	179252
#	201064
#	225066
#	242235
#	264669
#
# Disc length: 3811 seconds
#
# Revision: 0
# Processed by: cddbd v1.5.2PL0 Copyright (c) Steve Scherf et al.
# Submitted via: Feurio! 1.68 - http://www.feurio.com
#
DISCID=bd0ee10e
DTITLE=Elton John/Leon Russel - The Union
DYEAR=2010
DGENRE=pop
TTITLE0=If it wasn't for bad
TTITLE1=Eight hundret Dollar shoes
TTITLE2=Hey Ahab
TTITLE3=Gone to Shiloh
TTITLE4=Jimmie Roger's dream
TTITLE5=There's no tomorrow
TTITLE6=Monkey suit
TTITLE7=The best part of the day
TTITLE8=A dream come true
TTITLE9=When love is dying
TTITLE10=I should send have roses
TTITLE11=Hearts have turned to stone
TTITLE12=Never to old (to hold somebody)
TTITLE13=In the hand of angles
EXTD=
EXTT0=
EXTT1=
EXTT2=
EXTT3=
EXTT4=
EXTT5=
EXTT6=
EXTT7=
EXTT8=
EXTT9=
EXTT10=
EXTT11=
EXTT12=
EXTT13=
PLAYORDER=
